<?xml version="1.0" encoding="UTF-8"?>
<svg id="Layer_2" data-name="Layer 2" xmlns="http://www.w3.org/2000/svg" xmlns:xlink="http://www.w3.org/1999/xlink" viewBox="0 0 112.08 112.32">
  <defs>
    <style>
      .cls-1 {
        fill: #fff;
        filter: url(#outer-glow-1);
      }

      .cls-2 {
        fill: #7bd2f5;
      }
    </style>
    <filter id="outer-glow-1" filterUnits="userSpaceOnUse">
      <feOffset dx="0" dy="0"/>
      <feGaussianBlur result="blur" stdDeviation="8"/>
      <feFlood flood-color="#231f20" flood-opacity=".12"/>
      <feComposite in2="blur" operator="in"/>
      <feComposite in="SourceGraphic"/>
    </filter>
  </defs>
  <g id="Landing_Page">
    <g>
      <circle class="cls-1" cx="56" cy="56.09" r="32"/>
      <g>
        <g>
          <path class="cls-2" d="m68.72,52.3c-.58.13-1.19.21-1.81.21-.52,0-1.03-.05-1.53-.15.97,1.64,1.53,3.54,1.53,5.57,0,6.08-4.93,11-11,11s-11-4.92-11-11,4.92-11,11-11c1.26,0,2.47.22,3.6.62-.39-.94-.6-1.96-.6-3.04,0-.08,0-.16.01-.24-.97-.21-1.98-.33-3.01-.33-7.73,0-14,6.27-14,14,0,3.33,1.16,6.38,3.1,8.78l-2.66,2.66c-.59.59-.59,1.54,0,2.07.59.64,1.54.64,2.12,0l2.66-2.6c2.4,1.93,5.46,3.09,8.78,3.09s6.38-1.16,8.78-3.09l2.66,2.6c.59.64,1.54.64,2.07,0,.64-.53.64-1.48,0-2.07l-2.6-2.66c1.93-2.4,3.09-5.46,3.09-8.78,0-2.01-.43-3.91-1.19-5.64Z"/>
          <path class="cls-2" d="m55.91,49.94c-.83,0-1.5.67-1.5,1.5v6.5c0,.4.16.78.44,1.01l3,3c.59.64,1.54.64,2.07,0,.64-.53.64-1.48,0-2.07l-2.51-2.56v-5.88c0-.83-.67-1.5-1.5-1.5Z"/>
          <path class="cls-2" d="m45.86,39.94c-3.29,0-5.95,2.66-5.95,5.95,0,1.18.34,2.27.93,3.2l9.07-7.56c-1.06-.99-2.49-1.59-4.05-1.59Z"/>
        </g>
        <circle class="cls-2" cx="66.91" cy="44.51" r="5"/>
      </g>
    </g>
  </g>
</svg>