<?xml version="1.0" encoding="UTF-8"?>
<svg id="Layer_2" data-name="Layer 2" xmlns="http://www.w3.org/2000/svg" viewBox="0 0 549.04 577.97">
  <defs>
    <style>
      .cls-1 {
        fill: #a2def7;
      }
    </style>
  </defs>
  <g id="Patient_Login">
    <g>
      <path class="cls-1" d="m270.82,577.66c-118.83-.68-218.78-76.18-252.73-190.13-5.09-17.09-7.55-34.24-7.84-51.8-.3-18.72-4.81-43.13,22.26-44.62,27.14-1.49,24.71,22.79,26.74,41.75,11.9,110.93,98.4,192.93,206.02,195.75,113.37,2.97,205.75-74.53,223.93-188.07,1.76-10.99,1-22.52,3.84-33.15,3.16-11.8,12.17-18.57,25.22-16.98,10.71,1.31,17.8,8.39,19.45,18.34,3.41,20.62,1.87,41.27-3.08,61.68-33.55,138.07-153.24,213.01-263.81,207.23Z"/>
      <path class="cls-1" d="m31.05,181.91c19.11-1.05,34.46,11.58,36.32,29.89,1.92,18.84-14.88,37.24-34.44,37.72C14.41,249.97.57,236.04.02,216.41c-.56-20.11,11.42-33.43,31.03-34.5Z"/>
      <path class="cls-1" d="m516.44,181.75c19.78.64,33.09,14.09,32.58,32.93-.48,17.79-15.72,33.83-32.71,34.44-18.82.68-35.61-17.2-34.73-36.98.84-18.87,14.8-31.04,34.86-30.39Z"/>
      <path class="cls-1" d="m274.25,463.4c-30.69,0-58.35-7.18-82.94-21.55-24.6-14.36-44.08-33.94-58.44-58.74-14.37-24.79-21.55-52.73-21.55-83.82s6.59-58.93,19.78-83.53c13.18-24.59,31.19-44.07,54.01-58.44,22.82-14.36,48.6-21.55,77.33-21.55,23.21,0,44.66,4.83,64.34,14.46,19.67,9.65,36.2,22.73,49.58,39.25V30.11c0-9.05,2.85-16.33,8.56-21.84,5.7-5.5,12.89-8.26,21.55-8.26s16.33,2.76,21.84,8.26c5.5,5.52,8.26,12.79,8.26,21.84v269.18c0,31.09-7.18,59.03-21.55,83.82-14.37,24.8-33.75,44.38-58.15,58.74-24.41,14.37-51.95,21.55-82.64,21.55Zm0-53.13c20.07,0,37.97-4.82,53.72-14.46,15.73-9.64,28.13-22.92,37.19-39.85,9.05-16.91,13.58-35.8,13.58-56.67s-4.53-40.14-13.58-56.67c-9.06-16.53-21.46-29.61-37.19-39.26-15.75-9.64-33.65-14.46-53.72-14.46s-37.49,4.82-53.42,14.46c-15.94,9.65-28.54,22.73-37.78,39.26-9.25,16.53-13.87,35.42-13.87,56.67s4.62,39.75,13.87,56.67c9.24,16.93,21.84,30.21,37.78,39.85,15.94,9.65,33.74,14.46,53.42,14.46Z"/>
    </g>
  </g>
</svg>