<?xml version="1.0" encoding="UTF-8"?>
<svg id="Layer_2" data-name="Layer 2" xmlns="http://www.w3.org/2000/svg" viewBox="0 0 83 87.37">
  <defs>
    <style>
      .cls-1 {
        fill: #fcc584;
      }

      .cls-2 {
        fill: #fcc482;
      }

      .cls-3 {
        fill: #fbc37f;
      }

      .cls-4 {
        fill: #7bd3f5;
      }
    </style>
  </defs>
  <g id="Patient_Login">
    <g>
      <path class="cls-3" d="m40.94,87.33c-17.96-.1-33.07-11.52-38.21-28.74-.77-2.58-1.14-5.18-1.18-7.83-.05-2.83-.73-6.52,3.36-6.75,4.1-.23,3.74,3.44,4.04,6.31,1.8,16.77,14.88,29.17,31.14,29.59,17.14.45,31.1-11.27,33.85-28.43.27-1.66.15-3.4.58-5.01.48-1.78,1.84-2.81,3.81-2.57,1.62.2,2.69,1.27,2.94,2.77.52,3.12.28,6.24-.47,9.32-5.07,20.87-23.17,32.2-39.88,31.33Z"/>
      <path class="cls-1" d="m4.69,27.5c2.89-.16,5.21,1.75,5.49,4.52.29,2.85-2.25,5.63-5.21,5.7C2.18,37.79.09,35.68,0,32.72c-.08-3.04,1.73-5.05,4.69-5.22Z"/>
      <path class="cls-2" d="m78.07,27.48c2.99.1,5,2.13,4.93,4.98-.07,2.69-2.38,5.11-4.95,5.21-2.85.1-5.38-2.6-5.25-5.59.13-2.85,2.24-4.69,5.27-4.59Z"/>
      <path class="cls-4" d="m41.46,70.05c-4.64,0-8.82-1.09-12.54-3.26-3.72-2.17-6.66-5.13-8.83-8.88-2.17-3.75-3.26-7.97-3.26-12.67s1-8.91,2.99-12.63c1.99-3.72,4.71-6.66,8.17-8.83,3.45-2.17,7.35-3.26,11.69-3.26,3.51,0,6.75.73,9.73,2.19,2.97,1.46,5.47,3.44,7.5,5.93V4.55c0-1.37.43-2.47,1.29-3.3.86-.83,1.95-1.25,3.26-1.25s2.47.42,3.3,1.25c.83.83,1.25,1.93,1.25,3.3v40.69c0,4.7-1.09,8.92-3.26,12.67-2.17,3.75-5.1,6.71-8.79,8.88-3.69,2.17-7.85,3.26-12.49,3.26Zm0-8.03c3.03,0,5.74-.73,8.12-2.19,2.38-1.46,4.25-3.47,5.62-6.02,1.37-2.56,2.05-5.41,2.05-8.57s-.68-6.07-2.05-8.57c-1.37-2.5-3.24-4.48-5.62-5.93-2.38-1.46-5.09-2.19-8.12-2.19s-5.67.73-8.08,2.19c-2.41,1.46-4.31,3.44-5.71,5.93-1.4,2.5-2.1,5.35-2.1,8.57s.7,6.01,2.1,8.57c1.4,2.56,3.3,4.57,5.71,6.02,2.41,1.46,5.1,2.19,8.08,2.19Z"/>
    </g>
  </g>
</svg>