<?xml version="1.0" encoding="UTF-8"?>
<svg id="Layer_2" data-name="Layer 2" xmlns="http://www.w3.org/2000/svg" viewBox="0 0 32 32">
  <defs>
    <style>
      .cls-1 {
        fill: #e9282b;
      }

      .cls-2 {
        fill: #fff;
      }

      .cls-3 {
        fill: #fdeaeb;
      }
    </style>
  </defs>
  <g id="Patient_Login">
    <g>
      <circle class="cls-3" cx="16" cy="16" r="16"/>
      <circle class="cls-1" cx="16" cy="16" r="11.2"/>
      <g>
        <path class="cls-2" d="m11.89,11.12l2.26,2.26c1.13-.8,2.66-.79,3.78.05l2.25-2.25c-2.37-2.06-5.9-2.08-8.29-.05Z"/>
        <path class="cls-2" d="m11.1,11.87l2.26,2.26c-.8,1.13-.79,2.66.05,3.78l-2.25,2.25c-2.06-2.37-2.08-5.9-.05-8.29Z"/>
        <path class="cls-2" d="m20.11,20.88l-2.26-2.26c-1.13.8-2.66.79-3.78-.05l-2.25,2.25c2.37,2.06,5.9,2.08,8.29.05Z"/>
        <path class="cls-2" d="m20.9,20.1l-2.26-2.26c.8-1.13.79-2.66-.05-3.78l2.25-2.25c2.06,2.37,2.08,5.9.05,8.29Z"/>
      </g>
    </g>
  </g>
</svg>