<?xml version="1.0" encoding="UTF-8"?>
<svg id="Layer_2" data-name="Layer 2" xmlns="http://www.w3.org/2000/svg" xmlns:xlink="http://www.w3.org/1999/xlink" viewBox="0 0 112.32 112.32">
  <defs>
    <style>
      .cls-1 {
        fill: #fff;
        filter: url(#outer-glow-1);
      }

      .cls-2 {
        fill: #7bd2f5;
      }
    </style>
    <filter id="outer-glow-1" filterUnits="userSpaceOnUse">
      <feOffset dx="0" dy="0"/>
      <feGaussianBlur result="blur" stdDeviation="8"/>
      <feFlood flood-color="#231f20" flood-opacity=".12"/>
      <feComposite in2="blur" operator="in"/>
      <feComposite in="SourceGraphic"/>
    </filter>
  </defs>
  <g id="Landing_Page">
    <g>
      <circle class="cls-1" cx="56.11" cy="56.09" r="32"/>
      <g>
        <path class="cls-2" d="m68.53,53.09h.24c.23.96.35,1.97.35,3s-.12,2.04-.35,3h-4.79c.09-.97.14-1.98.14-3,0-.81-.04-1.6-.09-2.37-2.34-.35-4.35-1.71-5.57-3.63h-6.69c.35-1.53.82-2.87,1.38-3.97,1.29-2.58,2.51-3.03,2.98-3.03.26,0,.74.16,1.35.74.33-1.29.98-2.46,1.85-3.41-1.04-.21-2.11-.32-3.21-.32-8.84,0-16,7.16-16,16s7.16,16,16,16,16-7.16,16-16c0-1.78-.3-3.48-.83-5.07-.75.88-1.69,1.59-2.75,2.07Zm-25.41,3c0-1.03.12-2.04.35-3h4.79c-.09.97-.14,1.97-.14,3s.05,2.03.14,3h-4.79c-.23-.96-.35-1.97-.35-3Zm1.46,6h4.12c.46,2.24,1.16,4.23,2.04,5.84-2.64-1.21-4.82-3.27-6.15-5.84Zm4.12-12h-4.12c1.34-2.57,3.51-4.63,6.15-5.84-.88,1.6-1.58,3.59-2.04,5.84Zm10.39,15.97c-1.34,2.58-2.51,3.03-2.97,3.03s-1.69-.45-2.98-3.03c-.55-1.11-1.02-2.45-1.38-3.97h8.7c-.41,1.52-.82,2.87-1.38,3.97Zm1.87-6.97h-9.69c-.1-.96-.16-1.96-.16-3s.06-2.04.16-3h9.69c.1.96.16,1.96.16,3s-.06,2.04-.16,3Zm.54,8.84c.88-1.61,1.58-3.59,2.04-5.84h4.12c-1.34,2.57-3.51,4.63-6.16,5.84Z"/>
        <circle class="cls-2" cx="65.21" cy="45.82" r="5"/>
      </g>
    </g>
  </g>
</svg>