<?xml version="1.0" encoding="UTF-8"?>
<svg id="Layer_2" data-name="Layer 2" xmlns="http://www.w3.org/2000/svg" viewBox="0 0 1440 380">
  <defs>
    <style>
      .cls-1 {
        font-size: 36px;
      }

      .cls-1, .cls-2 {
        font-family: Comfortaa-Bold, Comfortaa;
        font-weight: 700;
      }

      .cls-3 {
        font-size: 20px;
      }

      .cls-3, .cls-4, .cls-5 {
        fill: #939598;
      }

      .cls-3, .cls-6, .cls-7, .cls-5 {
        font-family: Comfortaa-Regular, Comfortaa;
      }

      .cls-8 {
        fill: #f1f2f2;
      }

      .cls-9 {
        fill: #fdc37d;
      }

      .cls-10 {
        fill: #7bd2f5;
      }

      .cls-2 {
        fill: #231f20;
        font-size: 22px;
      }

      .cls-11 {
        fill: none;
        stroke: #939598;
        stroke-linecap: round;
        stroke-miterlimit: 10;
        stroke-width: .25px;
      }

      .cls-6 {
        fill: #bcbec0;
        font-size: 16px;
      }

      .cls-7 {
        fill: #6d6e71;
      }

      .cls-7, .cls-5 {
        font-size: 18px;
      }
    </style>
  </defs>
  <g id="Landing_Page">
    <g id="_Group_" data-name="&amp;lt;Group&amp;gt;">
      <rect class="cls-8" width="1440" height="380"/>
      <text class="cls-1" transform="translate(180 72.06)"><tspan class="cls-9" x="0" y="0">confi</tspan><tspan class="cls-10" x="93.2" y="0">dental</tspan></text>
      <text class="cls-7" transform="translate(182.23 104.46)"><tspan x="0" y="0">Đồng hành cùng nụ cười tự tin</tspan></text>
      <path class="cls-4" d="m214.43,168.48c0-8.89-7.2-16.1-16.1-16.1s-16.1,7.2-16.1,16.1c0,8.03,5.89,14.69,13.58,15.9v-11.25h-4.09v-4.65h4.09v-3.55c0-4.03,2.4-6.26,6.08-6.26,1.76,0,3.6.31,3.6.31v3.96h-2.03c-2,0-2.62,1.24-2.62,2.51v3.02h4.46l-.71,4.65h-3.75v11.25c7.7-1.21,13.58-7.87,13.58-15.9Z"/>
      <path class="cls-4" d="m270.99,160.17c-4.54,0-8.2,3.66-8.2,8.2s3.66,8.2,8.2,8.2,8.2-3.66,8.2-8.2-3.66-8.2-8.2-8.2Zm0,13.54c-2.93,0-5.33-2.39-5.33-5.33s2.39-5.33,5.33-5.33,5.33,2.39,5.33,5.33-2.4,5.33-5.33,5.33h0Zm10.45-13.87c0,1.06-.86,1.91-1.91,1.91s-1.91-.86-1.91-1.91.86-1.91,1.91-1.91,1.91.86,1.91,1.91Zm5.43,1.94c-.12-2.56-.71-4.83-2.58-6.7-1.87-1.87-4.14-2.46-6.7-2.58-2.64-.15-10.56-.15-13.2,0-2.56.12-4.83.71-6.7,2.58s-2.46,4.14-2.58,6.7c-.15,2.64-.15,10.56,0,13.2.12,2.56.71,4.83,2.58,6.7,1.88,1.87,4.14,2.46,6.7,2.58,2.64.15,10.56.15,13.2,0,2.56-.12,4.83-.71,6.7-2.58,1.87-1.87,2.46-4.14,2.58-6.7.15-2.64.15-10.55,0-13.2h0Zm-3.41,16.03c-.56,1.4-1.64,2.48-3.04,3.04-2.11.84-7.1.64-9.43.64s-7.33.19-9.43-.64c-1.4-.56-2.48-1.64-3.04-3.04-.84-2.11-.64-7.1-.64-9.43s-.19-7.33.64-9.43c.56-1.4,1.64-2.48,3.04-3.04,2.11-.84,7.1-.64,9.43-.64s7.33-.19,9.43.64c1.4.56,2.48,1.64,3.04,3.04.84,2.11.64,7.1.64,9.43s.19,7.33-.64,9.43Z"/>
      <path class="cls-4" d="m358.97,160.65c-.37-1.39-1.45-2.48-2.83-2.85-2.5-.67-12.5-.67-12.5-.67,0,0-10.01,0-12.5.67-1.38.37-2.46,1.46-2.83,2.85-.67,2.51-.67,7.75-.67,7.75,0,0,0,5.24.67,7.75.37,1.39,1.45,2.43,2.83,2.8,2.5.67,12.5.67,12.5.67,0,0,10.01,0,12.5-.67,1.38-.37,2.46-1.42,2.83-2.8.67-2.51.67-7.75.67-7.75,0,0,0-5.24-.67-7.75Zm-18.6,12.51v-9.52l8.36,4.76-8.36,4.76h0Z"/>
      <text class="cls-2" transform="translate(617.77 79.59)"><tspan x="0" y="0">Thời gian làm việc</tspan></text>
      <text class="cls-2" transform="translate(927.53 79.59)"><tspan x="0" y="0">Địa chỉ phòng khám</tspan></text>
      <text class="cls-3" transform="translate(618.45 130.23)"><tspan x="0" y="0">Thứ Hai - thứ Bảy</tspan><tspan x="0" y="36">8:00 Sáng - 20:00 Tối</tspan></text>
      <text class="cls-3" transform="translate(927.5 130.23)"><tspan x="0" y="0">Số 1 Đại Cồ Việt,</tspan><tspan x="0" y="36">Bách Khoa, Hai Bà Trưng, Hà Nội</tspan></text>
      <text class="cls-5" transform="translate(182.23 249.7)"><tspan x="0" y="0">0987-654-321</tspan><tspan x="0" y="24">confdental.contact@gmail.com</tspan></text>
      <line class="cls-11" x1="220" y1="324.7" x2="1220" y2="324.7"/>
      <text class="cls-6" transform="translate(532.7 357.82)"><tspan x="0" y="0">Copyright ©2023 confdent. Powered bt HUST.</tspan></text>
    </g>
  </g>
</svg>